STARTFONT 2.1
COMMENT $XConsortium: lubBI19.bdf,v 1.3 94/04/02 16:00:48 gildea Exp $
COMMENT  (c) Copyright Bigelow & Holmes 1986, 1985. Lucida is a registered
COMMENT  trademark of Bigelow & Holmes. See LEGAL NOTICE file for terms 
COMMENT  of the license. 
COMMENT  
COMMENT  Translation to ISO8859-2 by Cub Soft;  Petr.Kolar@vslib.cz
COMMENT  
FONT -B&H-LucidaBright-DemiBold-I-Normal--19-190-75-75-P-114-ISO8859-2
SIZE 19 72 72
FONTBOUNDINGBOX 34 22 -11 -4
STARTPROPERTIES 20
COMMENT Begin LogicalFontDescription
FONTNAME_REGISTRY ""
FOUNDRY "B&H"
FAMILY_NAME "LucidaBright"
WEIGHT_NAME "DemiBold"
SLANT "I"
SETWIDTH_NAME "Normal"
ADD_STYLE_NAME ""
PIXEL_SIZE 19
POINT_SIZE 190
RESOLUTION_X 100
RESOLUTION_Y 100
SPACING "P"
AVERAGE_WIDTH "114"
CHARSET_REGISTRY "ISO8859"
CHARSET_ENCODING "2"
COMMENT END LogicalFontDescription
COPYRIGHT "Copyright Bigelow & Holmes 1986, 1985., Copyright 1996 Cub Soft"
FONT_ASCENT 17
FONT_DESCENT 4
DEFAULT_CHAR 0
FACE_NAME "Lucida Bright Demibold Italic"
ENDPROPERTIES
CHARS 191
STARTCHAR space
ENCODING 32
SWIDTH 333 0
DWIDTH 6 0
BBX 1 1 0 0
BITMAP
00
ENDCHAR
STARTCHAR exclam
ENCODING 33
SWIDTH 265 0
DWIDTH 5 0
BBX 5 14 1 0
BITMAP
38
38
38
30
30
30
30
20
60
60
00
00
e0
e0
ENDCHAR
STARTCHAR quotedbl
ENCODING 34
SWIDTH 451 0
DWIDTH 9 0
BBX 7 5 3 9
BITMAP
ee
ce
c4
44
44
ENDCHAR
STARTCHAR numbersign
ENCODING 35
SWIDTH 636 0
DWIDTH 13 0
BBX 12 14 2 0
BITMAP
0130
0220
0260
0440
7ff0
0880
0880
1900
1100
ffe0
2200
6400
4400
c800
ENDCHAR
STARTCHAR dollar
ENCODING 36
SWIDTH 636 0
DWIDTH 12 0
BBX 10 17 3 -2
BITMAP
0200
0fc0
1ac0
32c0
3400
3c00
1c00
1e00
0f00
0f00
0b80
0b80
cb00
cf00
fc00
1000
1000
ENDCHAR
STARTCHAR percent
ENCODING 37
SWIDTH 772 0
DWIDTH 15 0
BBX 15 14 1 0
BITMAP
3c0e
6618
6630
c620
c660
6cc0
7980
0378
06cc
0ccc
19cc
318c
60d8
c0f0
ENDCHAR
STARTCHAR ampersand
ENCODING 38
SWIDTH 773 0
DWIDTH 15 0
BBX 14 14 2 0
BITMAP
0380
0ec0
0cc0
0cc0
0c80
0f00
367c
6630
e730
e320
e3c0
e180
71c0
3ef0
ENDCHAR
STARTCHAR apostrophe
ENCODING 39
SWIDTH 265 0
DWIDTH 5 0
BBX 4 6 3 8
BITMAP
70
70
70
20
60
c0
ENDCHAR
STARTCHAR parenleft
ENCODING 40
SWIDTH 336 0
DWIDTH 6 0
BBX 7 18 2 -4
BITMAP
02
04
08
18
30
70
60
60
e0
e0
e0
e0
e0
e0
60
60
20
20
ENDCHAR
STARTCHAR parenright
ENCODING 41
SWIDTH 336 0
DWIDTH 6 0
BBX 7 18 0 -4
BITMAP
10
08
0c
0c
0e
0e
0e
0e
0e
0e
0c
1c
18
18
30
20
40
80
ENDCHAR
STARTCHAR asterisk
ENCODING 42
SWIDTH 434 0
DWIDTH 9 0
BBX 7 7 3 7
BITMAP
18
5a
d6
6c
38
ec
48
ENDCHAR
STARTCHAR plus
ENCODING 43
SWIDTH 636 0
DWIDTH 12 0
BBX 11 12 2 0
BITMAP
0200
0200
0600
0600
0600
0400
ffe0
0400
0c00
0c00
0800
0800
ENDCHAR
STARTCHAR comma
ENCODING 44
SWIDTH 265 0
DWIDTH 5 0
BBX 4 7 1 -4
BITMAP
70
70
70
20
60
60
c0
ENDCHAR
STARTCHAR minus
ENCODING 45
SWIDTH 636 0
DWIDTH 12 0
BBX 11 1 2 6
BITMAP
ffe0
ENDCHAR
STARTCHAR period
ENCODING 46
SWIDTH 265 0
DWIDTH 5 0
BBX 4 3 1 0
BITMAP
70
f0
e0
ENDCHAR
STARTCHAR slash
ENCODING 47
SWIDTH 515 0
DWIDTH 10 0
BBX 13 18 0 -4
BITMAP
0018
0010
0020
0060
0040
0080
0080
0100
0200
0200
0400
0c00
0800
1000
3000
2000
4000
c000
ENDCHAR
STARTCHAR zero
ENCODING 48
SWIDTH 623 0
DWIDTH 12 0
BBX 11 14 2 0
BITMAP
0780
1cc0
38e0
30e0
70e0
60e0
e0e0
e0e0
e0e0
e1c0
e1c0
e380
6300
3c00
ENDCHAR
STARTCHAR one
ENCODING 49
SWIDTH 636 0
DWIDTH 12 0
BBX 8 14 2 0
BITMAP
3f
07
06
0e
0e
0e
0e
0c
1c
1c
1c
1c
3c
ff
ENDCHAR
STARTCHAR two
ENCODING 50
SWIDTH 636 0
DWIDTH 12 0
BBX 11 14 2 0
BITMAP
0f80
19c0
10e0
30e0
00e0
01c0
0380
0600
0800
1000
2000
6000
ff80
ff80
ENDCHAR
STARTCHAR three
ENCODING 51
SWIDTH 636 0
DWIDTH 12 0
BBX 11 14 2 0
BITMAP
1f80
11c0
10e0
00c0
01c0
0380
1e00
0380
0180
01c0
01c0
c380
c700
fe00
ENDCHAR
STARTCHAR four
ENCODING 52
SWIDTH 636 0
DWIDTH 12 0
BBX 11 14 1 0
BITMAP
00e0
01e0
02c0
06c0
0cc0
19c0
31c0
6180
c180
ffe0
0380
0300
0300
0fc0
ENDCHAR
STARTCHAR five
ENCODING 53
SWIDTH 636 0
DWIDTH 12 0
BBX 11 14 2 0
BITMAP
1fe0
1fe0
1000
2000
2000
3c00
0700
0380
0180
01c0
0180
c380
c700
fc00
ENDCHAR
STARTCHAR six
ENCODING 54
SWIDTH 636 0
DWIDTH 12 0
BBX 11 14 2 0
BITMAP
07e0
0c60
1860
3000
7000
6f80
f1c0
e1c0
e0c0
e0c0
e1c0
6180
7300
3e00
ENDCHAR
STARTCHAR seven
ENCODING 55
SWIDTH 636 0
DWIDTH 12 0
BBX 11 14 3 0
BITMAP
7fe0
7fe0
0040
0080
0100
0200
0600
0c00
1800
3800
7000
7000
e000
e000
ENDCHAR
STARTCHAR eight
ENCODING 56
SWIDTH 636 0
DWIDTH 12 0
BBX 11 14 2 0
BITMAP
07c0
1ce0
3860
3860
38c0
1f80
0f00
37c0
61c0
e0e0
e0c0
e0c0
7180
3e00
ENDCHAR
STARTCHAR nine
ENCODING 57
SWIDTH 636 0
DWIDTH 12 0
BBX 11 14 1 0
BITMAP
0f80
18c0
30e0
70e0
70e0
70e0
70e0
71e0
1ee0
01c0
01c0
c380
c700
fc00
ENDCHAR
STARTCHAR colon
ENCODING 58
SWIDTH 265 0
DWIDTH 5 0
BBX 5 10 1 0
BITMAP
38
38
38
00
00
00
00
e0
e0
e0
ENDCHAR
STARTCHAR semicolon
ENCODING 59
SWIDTH 265 0
DWIDTH 5 0
BBX 5 14 1 -4
BITMAP
38
38
38
00
00
00
00
00
70
60
60
60
60
c0
ENDCHAR
STARTCHAR less
ENCODING 60
SWIDTH 636 0
DWIDTH 12 0
BBX 12 12 2 0
BITMAP
0010
0070
01c0
0700
1c00
f000
7000
1800
0e00
0380
01c0
0040
ENDCHAR
STARTCHAR equal
ENCODING 61
SWIDTH 636 0
DWIDTH 12 0
BBX 12 5 1 3
BITMAP
7ff0
0000
0000
0000
ffe0
ENDCHAR
STARTCHAR greater
ENCODING 62
SWIDTH 636 0
DWIDTH 12 0
BBX 12 12 0 0
BITMAP
2000
3800
1c00
0700
0180
00e0
00f0
0380
0e00
3800
e000
8000
ENDCHAR
STARTCHAR question
ENCODING 63
SWIDTH 493 0
DWIDTH 9 0
BBX 8 14 3 0
BITMAP
7e
47
c7
07
06
0c
08
30
30
60
00
00
e0
e0
ENDCHAR
STARTCHAR at
ENCODING 64
SWIDTH 861 0
DWIDTH 16 0
BBX 14 14 2 0
BITMAP
03e0
0c18
1008
2384
4464
4844
98c4
99c4
99c4
9ac8
9cf0
4000
2080
1f00
ENDCHAR
STARTCHAR A
ENCODING 65
SWIDTH 765 0
DWIDTH 15 0
BBX 15 14 0 0
BITMAP
0060
0060
00e0
0170
0170
0270
0630
0438
0838
0ff8
1038
201c
601c
f07e
ENDCHAR
STARTCHAR B
ENCODING 66
SWIDTH 651 0
DWIDTH 12 0
BBX 12 14 1 0
BITMAP
3fe0
0c70
0c70
1c70
1c60
18e0
1f80
19c0
38e0
38e0
38e0
30e0
71c0
ff80
ENDCHAR
STARTCHAR C
ENCODING 67
SWIDTH 740 0
DWIDTH 14 0
BBX 13 14 2 0
BITMAP
03f8
0e18
1818
3010
7000
7000
e000
e000
e000
e000
e000
7000
7860
1f80
ENDCHAR
STARTCHAR D
ENCODING 68
SWIDTH 822 0
DWIDTH 16 0
BBX 16 14 0 0
BITMAP
1ff8
0e1e
0e0e
0e07
1e07
1c07
1c07
1c07
1c0e
380e
381c
3818
3870
ffc0
ENDCHAR
STARTCHAR E
ENCODING 69
SWIDTH 630 0
DWIDTH 12 0
BBX 13 14 1 0
BITMAP
1ff8
0e18
0e18
0c00
1c00
1c60
1fc0
1c40
1800
3800
3800
3820
3860
ffe0
ENDCHAR
STARTCHAR F
ENCODING 70
SWIDTH 602 0
DWIDTH 11 0
BBX 13 14 1 0
BITMAP
1ff8
0e18
0e18
0c00
1c00
1c60
1fc0
1c40
1800
3800
3800
3800
3800
fc00
ENDCHAR
STARTCHAR G
ENCODING 71
SWIDTH 780 0
DWIDTH 15 0
BBX 13 14 2 0
BITMAP
03f8
0e18
1818
3818
7000
7000
e000
e000
e1f8
e0f0
e0e0
70e0
78e0
1f80
ENDCHAR
STARTCHAR H
ENCODING 72
SWIDTH 827 0
DWIDTH 16 0
BBX 17 14 1 0
BITMAP
1f9f80
0e0e00
0e0e00
0c0e00
1c0e00
1c0c00
1ffc00
1c1c00
181c00
381c00
381800
383800
383800
fcfc00
ENDCHAR
STARTCHAR I
ENCODING 73
SWIDTH 372 0
DWIDTH 7 0
BBX 9 14 0 0
BITMAP
1f80
0e00
0e00
0e00
0e00
1c00
1c00
1c00
1c00
1800
3800
3800
3800
fc00
ENDCHAR
STARTCHAR J
ENCODING 74
SWIDTH 478 0
DWIDTH 9 0
BBX 12 18 0 -4
BITMAP
03f0
01e0
01c0
01c0
01c0
0380
0380
0380
0380
0380
0380
0700
0700
0700
0700
ce00
cc00
f800
ENDCHAR
STARTCHAR K
ENCODING 75
SWIDTH 746 0
DWIDTH 14 0
BBX 15 14 1 0
BITMAP
1f9e
0e08
0e10
0c60
1cc0
1d00
1f00
1f80
1bc0
39e0
38e0
3870
3878
fcfc
ENDCHAR
STARTCHAR L
ENCODING 76
SWIDTH 611 0
DWIDTH 12 0
BBX 11 14 1 0
BITMAP
1f00
0e00
0e00
0c00
1c00
1c00
1c00
1c00
1800
3800
3800
3860
3860
ffc0
ENDCHAR
STARTCHAR M
ENCODING 77
SWIDTH 926 0
DWIDTH 18 0
BBX 19 14 1 0
BITMAP
1e01e0
0e0380
0e0780
0e0780
1b0b80
1b0b00
131300
132700
11a700
31c700
318600
218600
200e00
f81f00
ENDCHAR
STARTCHAR N
ENCODING 78
SWIDTH 797 0
DWIDTH 15 0
BBX 17 14 0 0
BITMAP
1e0f80
0e0200
0f0200
0f0600
1b8600
1b8400
11c400
11c400
10ec00
306c00
307800
203800
203800
f81800
ENDCHAR
STARTCHAR O
ENCODING 79
SWIDTH 831 0
DWIDTH 16 0
BBX 14 14 2 0
BITMAP
03f0
0e38
181c
381c
701c
701c
e01c
e01c
e01c
e038
e030
6060
70c0
1f00
ENDCHAR
STARTCHAR P
ENCODING 80
SWIDTH 628 0
DWIDTH 12 0
BBX 13 14 1 0
BITMAP
1ff0
0e38
0e38
0c38
1c38
1c70
1ce0
1f80
1800
3800
3800
3800
3800
fc00
ENDCHAR
STARTCHAR Q
ENCODING 81
SWIDTH 835 0
DWIDTH 16 0
BBX 16 18 2 -4
BITMAP
03e0
0e38
181c
381c
701c
701c
e01c
e01c
e01c
e03c
e038
6078
70f0
1fe0
0180
0080
0060
001f
ENDCHAR
STARTCHAR R
ENCODING 82
SWIDTH 711 0
DWIDTH 14 0
BBX 13 14 1 0
BITMAP
1ff0
0e38
0e38
0c38
1c38
1c70
1ce0
1f80
19c0
39c0
38e0
38e0
3870
fc78
ENDCHAR
STARTCHAR S
ENCODING 83
SWIDTH 587 0
DWIDTH 11 0
BBX 11 14 1 0
BITMAP
07e0
1c60
3860
3800
3800
3c00
1f00
0f80
0380
01c0
01c0
c380
c300
fe00
ENDCHAR
STARTCHAR T
ENCODING 84
SWIDTH 716 0
DWIDTH 14 0
BBX 13 14 3 0
BITMAP
fff8
c718
8718
0700
0600
0e00
0e00
0e00
0e00
0c00
1c00
1c00
1c00
7e00
ENDCHAR
STARTCHAR U
ENCODING 85
SWIDTH 775 0
DWIDTH 15 0
BBX 14 14 3 0
BITMAP
fc3c
7818
7010
7010
7010
7020
6020
e020
e020
e060
e040
e040
7080
3f00
ENDCHAR
STARTCHAR V
ENCODING 86
SWIDTH 741 0
DWIDTH 14 0
BBX 14 14 3 0
BITMAP
f83c
7018
7010
3030
3820
3840
3840
3880
1d80
1d00
1e00
1e00
1c00
0800
ENDCHAR
STARTCHAR W
ENCODING 87
SWIDTH 922 0
DWIDTH 17 0
BBX 18 14 2 0
BITMAP
f843c0
70c180
70c100
71e300
71e200
72e600
72e400
74ec00
34e800
38f800
387000
307000
306000
206000
ENDCHAR
STARTCHAR X
ENCODING 88
SWIDTH 672 0
DWIDTH 13 0
BBX 15 14 0 0
BITMAP
1f1e
0e0c
0718
0730
0720
03c0
0380
03c0
07c0
0cc0
18e0
30e0
6070
f1f8
ENDCHAR
STARTCHAR Y
ENCODING 89
SWIDTH 669 0
DWIDTH 13 0
BBX 13 14 2 0
BITMAP
f878
7030
7060
3840
3880
1d00
1f00
0e00
1c00
1c00
1c00
1c00
3c00
7e00
ENDCHAR
STARTCHAR Z
ENCODING 90
SWIDTH 684 0
DWIDTH 13 0
BBX 13 14 1 0
BITMAP
1ff8
1870
10f0
01e0
01c0
0380
0780
0f00
0e00
1c00
3800
7820
7060
ffe0
ENDCHAR
STARTCHAR bracketleft
ENCODING 91
SWIDTH 336 0
DWIDTH 6 0
BBX 8 18 1 -4
BITMAP
0f
1c
1c
18
18
18
38
38
30
30
30
70
70
60
60
60
e0
f8
ENDCHAR
STARTCHAR backslash
ENCODING 92
SWIDTH 515 0
DWIDTH 10 0
BBX 6 18 3 -4
BITMAP
80
40
40
40
40
20
20
20
20
10
10
10
10
08
08
08
08
04
ENDCHAR
STARTCHAR bracketright
ENCODING 93
SWIDTH 336 0
DWIDTH 6 0
BBX 8 18 0 -4
BITMAP
1f
07
06
06
06
0e
0e
0c
0c
0c
1c
1c
18
18
18
38
38
f0
ENDCHAR
STARTCHAR asciicircum
ENCODING 94
SWIDTH 636 0
DWIDTH 12 0
BBX 11 12 1 2
BITMAP
0100
0100
0300
0780
0580
0c80
0880
10c0
3040
2040
4060
c060
ENDCHAR
STARTCHAR underscore
ENCODING 95
SWIDTH 500 0
DWIDTH 9 0
BBX 8 1 1 -2
BITMAP
ff
ENDCHAR
STARTCHAR grave
ENCODING 96
SWIDTH 599 0
DWIDTH 11 0
BBX 4 3 6 11
BITMAP
e0
60
30
ENDCHAR
STARTCHAR a
ENCODING 97
SWIDTH 634 0
DWIDTH 12 0
BBX 11 10 1 0
BITMAP
07e0
18e0
30c0
70c0
61c0
e3c0
e3c0
e580
f980
73e0
ENDCHAR
STARTCHAR b
ENCODING 98
SWIDTH 633 0
DWIDTH 12 0
BBX 11 14 2 0
BITMAP
7c00
1800
3800
3800
39c0
33e0
34e0
78e0
78e0
70c0
61c0
6180
e300
fc00
ENDCHAR
STARTCHAR c
ENCODING 99
SWIDTH 524 0
DWIDTH 10 0
BBX 10 10 1 0
BITMAP
0fc0
1880
3080
7000
e000
e000
e000
e000
6100
3e00
ENDCHAR
STARTCHAR d
ENCODING 100
SWIDTH 634 0
DWIDTH 12 0
BBX 12 14 1 0
BITMAP
00f0
0070
0060
00e0
07e0
18e0
30e0
70c0
61c0
e3c0
e3c0
e5c0
f980
73e0
ENDCHAR
STARTCHAR e
ENCODING 101
SWIDTH 548 0
DWIDTH 10 0
BBX 9 10 1 0
BITMAP
0f00
1380
3180
6380
e700
fc00
e000
e000
f180
3f00
ENDCHAR
STARTCHAR f
ENCODING 102
SWIDTH 415 0
DWIDTH 8 0
BBX 10 19 1 -4
BITMAP
07c0
0cc0
0cc0
1c00
1c00
7f00
3800
3800
3800
3000
3000
7000
7000
7000
7000
6000
e000
e000
e000
ENDCHAR
STARTCHAR g
ENCODING 103
SWIDTH 628 0
DWIDTH 12 0
BBX 12 14 1 -4
BITMAP
03f0
0c70
1860
3060
70e0
71e0
73e0
76c0
7dc0
79c0
01c0
8180
e300
7e00
ENDCHAR
STARTCHAR h
ENCODING 104
SWIDTH 656 0
DWIDTH 12 0
BBX 11 14 2 0
BITMAP
7c00
1800
3800
3800
39c0
3be0
36e0
74e0
78c0
71c0
71c0
61c0
e1c0
e1e0
ENDCHAR
STARTCHAR i
ENCODING 105
SWIDTH 319 0
DWIDTH 6 0
BBX 6 14 2 0
BITMAP
1c
1c
00
00
f8
38
38
30
70
70
70
60
e0
f8
ENDCHAR
STARTCHAR j
ENCODING 106
SWIDTH 381 0
DWIDTH 7 0
BBX 10 18 0 -4
BITMAP
01c0
01c0
0000
0000
0780
0380
0380
0300
0300
0700
0700
0700
0600
0600
0e00
cc00
cc00
f000
ENDCHAR
STARTCHAR k
ENCODING 107
SWIDTH 626 0
DWIDTH 12 0
BBX 10 14 2 0
BITMAP
7800
3800
3800
3800
31c0
31c0
7380
7700
7c00
6e00
6600
e700
e380
e3c0
ENDCHAR
STARTCHAR l
ENCODING 108
SWIDTH 319 0
DWIDTH 6 0
BBX 6 14 1 0
BITMAP
7c
1c
18
38
38
38
30
30
70
70
70
60
e0
f8
ENDCHAR
STARTCHAR m
ENCODING 109
SWIDTH 969 0
DWIDTH 18 0
BBX 17 10 2 0
BITMAP
f9c700
33ef80
34fb80
78f380
79e300
71c300
61c700
618700
e18700
e38780
ENDCHAR
STARTCHAR n
ENCODING 110
SWIDTH 656 0
DWIDTH 12 0
BBX 11 10 2 0
BITMAP
f9c0
3be0
36e0
7ce0
78c0
71c0
71c0
61c0
e1c0
e1e0
ENDCHAR
STARTCHAR o
ENCODING 111
SWIDTH 599 0
DWIDTH 11 0
BBX 11 10 1 0
BITMAP
0f80
19c0
30c0
70e0
e0c0
e1c0
e1c0
e180
f300
3c00
ENDCHAR
STARTCHAR p
ENCODING 112
SWIDTH 639 0
DWIDTH 12 0
BBX 12 14 1 -4
BITMAP
7ce0
39f0
3a70
3c70
3870
3860
70e0
70c0
7180
7e00
6000
e000
e000
e000
ENDCHAR
STARTCHAR q
ENCODING 113
SWIDTH 630 0
DWIDTH 12 0
BBX 11 14 1 -4
BITMAP
07e0
18e0
30e0
70c0
61c0
e3c0
e3c0
e5c0
f980
7380
0380
0380
0380
0300
ENDCHAR
STARTCHAR r
ENCODING 114
SWIDTH 496 0
DWIDTH 9 0
BBX 10 10 2 0
BITMAP
f9c0
3b80
3680
7c00
7800
7000
7000
6000
e000
e000
ENDCHAR
STARTCHAR s
ENCODING 115
SWIDTH 479 0
DWIDTH 9 0
BBX 9 10 1 0
BITMAP
1f80
3980
3100
3800
1c00
0e00
0700
c700
c600
7c00
ENDCHAR
STARTCHAR t
ENCODING 116
SWIDTH 375 0
DWIDTH 7 0
BBX 7 13 2 0
BITMAP
18
38
38
fe
70
70
70
70
60
e0
e0
e0
78
ENDCHAR
STARTCHAR u
ENCODING 117
SWIDTH 655 0
DWIDTH 12 0
BBX 11 10 2 0
BITMAP
f1e0
70e0
70c0
70c0
71c0
63c0
e7c0
ed80
fb80
73e0
ENDCHAR
STARTCHAR v
ENCODING 118
SWIDTH 584 0
DWIDTH 11 0
BBX 11 10 2 0
BITMAP
f0e0
70e0
30c0
38c0
3980
3900
1a00
1c00
1800
1000
ENDCHAR
STARTCHAR w
ENCODING 119
SWIDTH 822 0
DWIDTH 16 0
BBX 15 10 2 0
BITMAP
f08e
7186
3184
338c
3bc8
3cd0
3ce0
38e0
18c0
1080
ENDCHAR
STARTCHAR x
ENCODING 120
SWIDTH 534 0
DWIDTH 10 0
BBX 10 10 1 0
BITMAP
79c0
38c0
1d80
1d00
0e00
0e00
3700
6700
c380
c3c0
ENDCHAR
STARTCHAR y
ENCODING 121
SWIDTH 586 0
DWIDTH 11 0
BBX 13 14 0 -4
BITMAP
3c38
1c18
0c18
0e30
0e60
0e40
0680
0700
0700
0600
0400
0800
3000
f000
ENDCHAR
STARTCHAR z
ENCODING 122
SWIDTH 567 0
DWIDTH 11 0
BBX 11 10 1 0
BITMAP
3fe0
31c0
2380
0700
0f00
0e00
1c00
3840
70c0
ff80
ENDCHAR
STARTCHAR braceleft
ENCODING 123
SWIDTH 361 0
DWIDTH 7 0
BBX 7 18 2 -4
BITMAP
0e
1c
18
18
18
18
18
30
20
e0
70
30
70
60
e0
e0
e0
70
ENDCHAR
STARTCHAR bar
ENCODING 124
SWIDTH 253 0
DWIDTH 5 0
BBX 5 18 1 -4
BITMAP
18
18
18
10
10
30
30
30
20
20
60
60
60
40
40
c0
c0
c0
ENDCHAR
STARTCHAR braceright
ENCODING 125
SWIDTH 361 0
DWIDTH 7 0
BBX 7 18 1 -4
BITMAP
1c
0e
0e
0e
0c
1c
18
1c
0e
08
18
30
30
30
30
30
70
e0
ENDCHAR
STARTCHAR asciitilde
ENCODING 126
SWIDTH 636 0
DWIDTH 12 0
BBX 12 5 1 3
BITMAP
3810
4c10
8610
8320
81c0
ENDCHAR
STARTCHAR nobreakspace
ENCODING 160
SWIDTH 333 0
DWIDTH 6 0
BBX 1 1 0 0
BITMAP
00
ENDCHAR
STARTCHAR Aogonek
ENCODING 161
SWIDTH 765 0
DWIDTH 15 0
BBX 15 17 0 -3
BITMAP
0060
0060
00e0
0170
0170
0270
0630
0438
0838
0ff8
1038
201c
601c
f07e
0100
0200
0380
ENDCHAR
STARTCHAR breve
ENCODING 162
SWIDTH 599 0
DWIDTH 11 0
BBX 7 3 5 11
BITMAP
82
fc
78
ENDCHAR
STARTCHAR Lstroke
ENCODING 163
SWIDTH 611 0
DWIDTH 12 0
BBX 11 14 1 0
BITMAP
1f00
0e00
0e00
0c00
1c00
1f00
1c00
7c00
1800
3800
3800
3820
3860
ffe0
ENDCHAR
STARTCHAR currency
ENCODING 164
SWIDTH 636 0
DWIDTH 13 0
BBX 14 14 1 0
BITMAP
2004
100c
0f90
0ce0
0860
1820
1020
1060
1060
1040
1880
3fc0
4020
8010
ENDCHAR
STARTCHAR Lcaron
ENCODING 165
SWIDTH 736 0
DWIDTH 14 0
BBX 13 16 1 0
BITMAP
0038
0038
1f38
0e10
0e30
0c60
1c00
1c00
1c00
1c00
1800
3800
3800
3860
3860
ffc0
ENDCHAR
STARTCHAR Sacute
ENCODING 166
SWIDTH 587 0
DWIDTH 11 0
BBX 11 18 1 0
BITMAP
00e0
0180
0300
0000
07e0
1c60
3860
3800
3800
3c00
1f00
0f80
0380
01c0
01c0
c380
c300
fe00
ENDCHAR
STARTCHAR section
ENCODING 167
SWIDTH 636 0
DWIDTH 12 0
BBX 11 18 2 -4
BITMAP
07e0
1c60
1860
3800
3c00
1e00
1f80
33c0
31c0
70c0
3c80
3f00
0f80
0380
0180
c380
c300
fc00
ENDCHAR
STARTCHAR diaeresis
ENCODING 168
SWIDTH 599 0
DWIDTH 11 0
BBX 6 1 6 13
BITMAP
cc
ENDCHAR
STARTCHAR Scaron
ENCODING 169
SWIDTH 587 0
DWIDTH 11 0
BBX 11 18 1 0
BITMAP
08c0
0580
0700
0000
07e0
1c60
3860
3800
3800
3c00
1f00
0f80
0380
01c0
01c0
c380
c300
fe00
ENDCHAR
STARTCHAR Scedilla
ENCODING 170
SWIDTH 587 0
DWIDTH 11 0
BBX 11 18 1 -4
BITMAP
07e0
1c60
3860
3800
3800
3c00
1f00
0f80
0380
01c0
01c0
c380
c300
fe00
0600
0600
0600
0e00
ENDCHAR
STARTCHAR Tcaron
ENCODING 171
SWIDTH 716 0
DWIDTH 14 0
BBX 13 18 3 0
BITMAP
08c0
0580
0700
0000
fff8
c718
8718
0700
0600
0e00
0e00
0e00
0e00
0c00
1c00
1c00
1c00
7e00
ENDCHAR
STARTCHAR Zacute
ENCODING 172
SWIDTH 684 0
DWIDTH 13 0
BBX 13 18 1 0
BITMAP
0038
0060
00c0
0000
1ff8
1870
10f0
01e0
01c0
0380
0780
0f00
0e00
1c00
3800
7820
7060
ffe0
ENDCHAR
STARTCHAR hyphen
ENCODING 173
SWIDTH 289 0
DWIDTH 5 0
BBX 5 1 1 6
BITMAP
f8
ENDCHAR
STARTCHAR Zcaron
ENCODING 174
SWIDTH 684 0
DWIDTH 13 0
BBX 13 18 1 0
BITMAP
0230
0160
01c0
0000
1ff8
1870
10f0
01e0
01c0
0380
0780
0f00
0e00
1c00
3800
7820
7060
ffe0
ENDCHAR
STARTCHAR Zabovedot
ENCODING 175
SWIDTH 684 0
DWIDTH 13 0
BBX 13 17 1 0
BITMAP
01c0
01c0
0000
1ff8
1870
10f0
01e0
01c0
0380
0780
0f00
0e00
1c00
3800
7820
7060
ffe0
ENDCHAR
STARTCHAR degree
ENCODING 176
SWIDTH 259 0
DWIDTH 5 0
BBX 3 4 4 10
BITMAP
60
a0
a0
60
ENDCHAR
STARTCHAR aogonek
ENCODING 177
SWIDTH 634 0
DWIDTH 12 0
BBX 11 13 1 -3
BITMAP
07e0
18e0
30c0
70c0
61c0
e3c0
e3c0
e580
f980
73e0
0400
0800
0e00
ENDCHAR
STARTCHAR ogonek
ENCODING 178
SWIDTH 599 0
DWIDTH 11 0
BBX 3 3 4 -4
BITMAP
40
80
e0
ENDCHAR
STARTCHAR lstroke
ENCODING 179
SWIDTH 319 0
DWIDTH 6 0
BBX 7 14 1 0
BITMAP
3c
1c
1c
1c
18
3a
3e
f8
b8
30
70
70
70
78
ENDCHAR
STARTCHAR acute
ENCODING 180
SWIDTH 599 0
DWIDTH 11 0
BBX 5 3 7 11
BITMAP
38
60
c0
ENDCHAR
STARTCHAR lcaron
ENCODING 181
SWIDTH 578 0
DWIDTH 11 0
BBX 11 16 1 0
BITMAP
00e0
00e0
7ce0
1c40
18c0
3980
3800
3800
3000
3000
7000
7000
7000
6000
e000
f800
ENDCHAR
STARTCHAR sacute
ENCODING 182
SWIDTH 479 0
DWIDTH 9 0
BBX 10 14 1 0
BITMAP
01c0
0300
0600
0000
1f80
3980
3100
3800
1c00
0e00
0700
c700
c600
7c00
ENDCHAR
STARTCHAR caron
ENCODING 183
SWIDTH 599 0
DWIDTH 11 0
BBX 6 3 6 11
BITMAP
8c
58
70
ENDCHAR
STARTCHAR cedilla
ENCODING 184
SWIDTH 599 0
DWIDTH 11 0
BBX 3 4 3 -4
BITMAP
60
60
60
e0
ENDCHAR
STARTCHAR scaron
ENCODING 185
SWIDTH 479 0
DWIDTH 9 0
BBX 9 14 1 0
BITMAP
1180
0b00
0e00
0000
1f80
3980
3100
3800
1c00
0e00
0700
c700
c600
7c00
ENDCHAR
STARTCHAR scedilla
ENCODING 186
SWIDTH 479 0
DWIDTH 9 0
BBX 9 14 1 -4
BITMAP
1f80
3980
3100
3800
1c00
0e00
0700
c700
c600
7c00
0c00
0c00
0c00
1c00
ENDCHAR
STARTCHAR tcaron
ENCODING 187
SWIDTH 526 0
DWIDTH 10 0
BBX 10 17 2 0
BITMAP
01c0
01c0
01c0
0080
1980
3b00
3800
fe00
7000
7000
7000
7000
6000
e000
e000
e000
7800
ENDCHAR
STARTCHAR zacute
ENCODING 188
SWIDTH 567 0
DWIDTH 11 0
BBX 11 14 1 0
BITMAP
00e0
0180
0300
0000
3fe0
31c0
2380
0700
0f00
0e00
1c00
3840
70c0
ff80
ENDCHAR
STARTCHAR doubleacute
ENCODING 189
SWIDTH 599 0
DWIDTH 11 0
BBX 7 3 6 11
BITMAP
36
68
90
ENDCHAR
STARTCHAR zcaron
ENCODING 190
SWIDTH 567 0
DWIDTH 11 0
BBX 11 14 1 0
BITMAP
08c0
0580
0700
0000
3fe0
31c0
2380
0700
0f00
0e00
1c00
3840
70c0
ff80
ENDCHAR
STARTCHAR zabovedot
ENCODING 191
SWIDTH 567 0
DWIDTH 11 0
BBX 11 13 1 0
BITMAP
0700
0700
0000
3fe0
31c0
2380
0700
0f00
0e00
1c00
3840
70c0
ff80
ENDCHAR
STARTCHAR Racute
ENCODING 192
SWIDTH 711 0
DWIDTH 14 0
BBX 13 18 1 0
BITMAP
0038
0060
00c0
0000
1ff0
0e38
0e38
0c38
1c38
1c70
1ce0
1f80
19c0
39c0
38e0
38e0
3870
fc78
ENDCHAR
STARTCHAR Aacute
ENCODING 193
SWIDTH 765 0
DWIDTH 15 0
BBX 15 18 0 0
BITMAP
001c
0030
0060
0000
0060
0060
00e0
0170
0170
0270
0630
0438
0838
0ff8
1038
201c
601c
f07e
ENDCHAR
STARTCHAR Acircumflex
ENCODING 194
SWIDTH 765 0
DWIDTH 15 0
BBX 15 18 0 0
BITMAP
0070
00f0
0198
0000
0060
0060
00e0
0170
0170
0270
0630
0438
0838
0ff8
1038
201c
601c
f07e
ENDCHAR
STARTCHAR Abreve
ENCODING 195
SWIDTH 765 0
DWIDTH 15 0
BBX 15 18 0 0
BITMAP
0104
01f8
00f0
0000
0060
0060
00e0
0170
0170
0270
0630
0438
0838
0ff8
1038
201c
601c
f07e
ENDCHAR
STARTCHAR Adiaeresis
ENCODING 196
SWIDTH 765 0
DWIDTH 15 0
BBX 15 16 0 0
BITMAP
00cc
0000
0060
0060
00e0
0170
0170
0270
0630
0438
0838
0ff8
1038
201c
601c
f07e
ENDCHAR
STARTCHAR Lacute
ENCODING 197
SWIDTH 611 0
DWIDTH 12 0
BBX 11 18 1 0
BITMAP
01c0
0300
0600
0000
1f00
0e00
0e00
0c00
1c00
1c00
1c00
1c00
1800
3800
3800
3860
3860
ffc0
ENDCHAR
STARTCHAR Cacute
ENCODING 198
SWIDTH 740 0
DWIDTH 14 0
BBX 13 18 2 0
BITMAP
0038
0060
00c0
0000
03f8
0e18
1818
3010
7000
7000
e000
e000
e000
e000
e000
7000
7860
1f80
ENDCHAR
STARTCHAR Ccedilla
ENCODING 199
SWIDTH 740 0
DWIDTH 14 0
BBX 13 18 2 -4
BITMAP
03f8
0e18
1818
3010
7000
7000
e000
e000
e000
e000
e000
7000
7860
1f80
0800
0c00
0c00
1c00
ENDCHAR
STARTCHAR Ccaron
ENCODING 200
SWIDTH 740 0
DWIDTH 14 0
BBX 13 18 2 0
BITMAP
0230
0160
01c0
0000
03f8
0e18
1818
3010
7000
7000
e000
e000
e000
e000
e000
7000
7860
1f80
ENDCHAR
STARTCHAR Eacute
ENCODING 201
SWIDTH 630 0
DWIDTH 12 0
BBX 13 18 1 0
BITMAP
0070
00c0
0180
0000
1ff8
0e18
0e18
0c00
1c00
1c60
1fc0
1c40
1800
3800
3800
3820
3860
ffe0
ENDCHAR
STARTCHAR Eogonek
ENCODING 202
SWIDTH 630 0
DWIDTH 12 0
BBX 13 17 1 -3
BITMAP
1ff8
0e18
0e18
0c00
1c00
1c60
1fc0
1c40
1800
3800
3800
3820
3860
ffe0
0200
0400
0700
ENDCHAR
STARTCHAR Ediaeresis
ENCODING 203
SWIDTH 630 0
DWIDTH 12 0
BBX 13 16 1 0
BITMAP
0330
0000
1ff8
0e18
0e18
0c00
1c00
1c60
1fc0
1c40
1800
3800
3800
3820
3860
ffe0
ENDCHAR
STARTCHAR Ecaron
ENCODING 204
SWIDTH 630 0
DWIDTH 12 0
BBX 13 18 1 0
BITMAP
0230
0160
01c0
0000
1ff8
0e18
0e18
0c00
1c00
1c60
1fc0
1c40
1800
3800
3800
3820
3860
ffe0
ENDCHAR
STARTCHAR Iacute
ENCODING 205
SWIDTH 372 0
DWIDTH 7 0
BBX 9 18 0 0
BITMAP
0380
0600
0c00
0000
1f80
0e00
0e00
0e00
0e00
1c00
1c00
1c00
1c00
1800
3800
3800
3800
fc00
ENDCHAR
STARTCHAR Icircumflex
ENCODING 206
SWIDTH 372 0
DWIDTH 7 0
BBX 9 18 0 0
BITMAP
0700
0f00
1980
0000
1f80
0e00
0e00
0e00
0e00
1c00
1c00
1c00
1c00
1800
3800
3800
3800
fc00
ENDCHAR
STARTCHAR Dcaron
ENCODING 207
SWIDTH 822 0
DWIDTH 16 0
BBX 16 18 0 0
BITMAP
0118
00b0
00e0
0000
1ff8
0e1e
0e0e
0e07
1e07
1c07
1c07
1c07
1c0e
380e
381c
3818
3870
ffc0
ENDCHAR
STARTCHAR Dstroke
ENCODING 208
SWIDTH 822 0
DWIDTH 16 0
BBX 16 14 0 0
BITMAP
1ff8
0e1e
0e0e
0e07
1c07
1c07
7f87
1c07
1c0e
380e
381c
3818
3870
ffc0
ENDCHAR
STARTCHAR Nacute
ENCODING 209
SWIDTH 797 0
DWIDTH 15 0
BBX 17 18 0 0
BITMAP
000e00
001800
003000
000000
1e0f80
0e0200
0f0200
0f0600
1b8600
1b8400
11c400
11c400
10ec00
306c00
307800
203800
203800
f81800
ENDCHAR
STARTCHAR Ncaron
ENCODING 210
SWIDTH 797 0
DWIDTH 15 0
BBX 17 18 0 0
BITMAP
008c00
005800
007000
000000
1e0f80
0e0200
0f0200
0f0600
1b8600
1b8400
11c400
11c400
10ec00
306c00
307800
203800
203800
f81800
ENDCHAR
STARTCHAR Oacute
ENCODING 211
SWIDTH 831 0
DWIDTH 16 0
BBX 14 18 2 0
BITMAP
0070
00c0
0180
0000
03f0
0e38
181c
381c
701c
701c
e01c
e01c
e01c
e038
e030
6060
70c0
1f00
ENDCHAR
STARTCHAR Ocircumflex
ENCODING 212
SWIDTH 831 0
DWIDTH 16 0
BBX 14 18 2 0
BITMAP
00e0
01e0
0330
0000
03f0
0e38
181c
381c
701c
701c
e01c
e01c
e01c
e038
e030
6060
70c0
1f00
ENDCHAR
STARTCHAR Odoubleacute
ENCODING 213
SWIDTH 831 0
DWIDTH 16 0
BBX 14 18 2 0
BITMAP
006c
00d0
0120
0000
03f0
0e38
181c
381c
701c
701c
e01c
e01c
e01c
e038
e030
6060
70c0
1f00
ENDCHAR
STARTCHAR Odiaeresis
ENCODING 214
SWIDTH 831 0
DWIDTH 16 0
BBX 14 16 2 0
BITMAP
0330
0000
03f0
0e38
181c
381c
701c
701c
e01c
e01c
e01c
e038
e030
6060
70c0
1f00
ENDCHAR
STARTCHAR multiply
ENCODING 215
SWIDTH 636 0
DWIDTH 12 0
BBX 13 12 1 0
BITMAP
1008
3018
1860
0cc0
0d80
0700
0700
0d80
1980
30c0
c060
8040
ENDCHAR
STARTCHAR Rcaron
ENCODING 216
SWIDTH 711 0
DWIDTH 14 0
BBX 13 18 1 0
BITMAP
0230
0160
01c0
0000
1ff0
0e38
0e38
0c38
1c38
1c70
1ce0
1f80
19c0
39c0
38e0
38e0
3870
fc78
ENDCHAR
STARTCHAR Uring
ENCODING 217
SWIDTH 775 0
DWIDTH 15 0
BBX 14 18 3 0
BITMAP
0380
0280
0380
0000
fc3c
7818
7010
7010
7010
7020
6020
e020
e020
e060
e040
e040
7080
3f00
ENDCHAR
STARTCHAR Uacute
ENCODING 218
SWIDTH 775 0
DWIDTH 15 0
BBX 14 18 3 0
BITMAP
00e0
0180
0300
0000
fc3c
7818
7010
7010
7010
7020
6020
e020
e020
e060
e040
e040
7080
3f00
ENDCHAR
STARTCHAR Udoubleacute
ENCODING 219
SWIDTH 775 0
DWIDTH 15 0
BBX 14 18 3 0
BITMAP
00d8
01a0
0240
0000
fc3c
7818
7010
7010
7010
7020
6020
e020
e020
e060
e040
e040
7080
3f00
ENDCHAR
STARTCHAR Udiaeresis
ENCODING 220
SWIDTH 775 0
DWIDTH 15 0
BBX 14 16 3 0
BITMAP
0660
0000
fc3c
7818
7010
7010
7010
7020
6020
e020
e020
e060
e040
e040
7080
3f00
ENDCHAR
STARTCHAR Yacute
ENCODING 221
SWIDTH 669 0
DWIDTH 13 0
BBX 13 18 2 0
BITMAP
01c0
0300
0600
0000
f878
7030
7060
3840
3880
1d00
1f00
0e00
1c00
1c00
1c00
1c00
3c00
7e00
ENDCHAR
STARTCHAR Tcedilla
ENCODING 222
SWIDTH 716 0
DWIDTH 14 0
BBX 13 18 3 -4
BITMAP
fff8
c718
8718
0700
0600
0e00
0e00
0e00
0e00
0c00
1c00
1c00
1c00
7e00
0300
0300
0300
0700
ENDCHAR
STARTCHAR ssharp
ENCODING 223
SWIDTH 656 0
DWIDTH 12 0
BBX 11 19 1 -4
BITMAP
07c0
0cc0
1ce0
1cc0
1880
1900
3b00
3b00
3b80
31c0
30e0
7060
7460
74c0
6780
6000
e000
e000
e000
ENDCHAR
STARTCHAR racute
ENCODING 224
SWIDTH 496 0
DWIDTH 9 0
BBX 10 14 2 0
BITMAP
01c0
0300
0600
0000
f9c0
3b80
3680
7c00
7800
7000
7000
6000
e000
e000
ENDCHAR
STARTCHAR aacute
ENCODING 225
SWIDTH 634 0
DWIDTH 12 0
BBX 11 14 1 0
BITMAP
00e0
0180
0300
0000
07e0
18e0
30c0
70c0
61c0
e3c0
e3c0
e580
f980
73e0
ENDCHAR
STARTCHAR acircumflex
ENCODING 226
SWIDTH 634 0
DWIDTH 12 0
BBX 11 14 1 0
BITMAP
0380
0780
0cc0
0000
07e0
18e0
30c0
70c0
61c0
e3c0
e3c0
e580
f980
73e0
ENDCHAR
STARTCHAR abreve
ENCODING 227
SWIDTH 634 0
DWIDTH 12 0
BBX 12 14 1 0
BITMAP
0410
07e0
03c0
0000
07e0
18e0
30c0
70c0
61c0
e3c0
e3c0
e580
f980
73e0
ENDCHAR
STARTCHAR adiaeresis
ENCODING 228
SWIDTH 634 0
DWIDTH 12 0
BBX 11 12 1 0
BITMAP
0660
0000
07e0
18e0
30c0
70c0
61c0
e3c0
e3c0
e580
f980
73e0
ENDCHAR
STARTCHAR lacute
ENCODING 229
SWIDTH 319 0
DWIDTH 6 0
BBX 8 18 1 0
BITMAP
07
0c
18
00
7c
1c
18
38
38
38
30
30
70
70
70
60
e0
f8
ENDCHAR
STARTCHAR cacute
ENCODING 230
SWIDTH 524 0
DWIDTH 10 0
BBX 11 14 1 0
BITMAP
00e0
0180
0300
0000
0fc0
1880
3080
7000
e000
e000
e000
e000
6100
3e00
ENDCHAR
STARTCHAR ccedilla
ENCODING 231
SWIDTH 524 0
DWIDTH 10 0
BBX 10 14 1 -4
BITMAP
0fc0
1880
3080
7000
e000
e000
e000
e000
6100
3e00
2000
3000
3000
7000
ENDCHAR
STARTCHAR ccaron
ENCODING 232
SWIDTH 524 0
DWIDTH 10 0
BBX 10 14 1 0
BITMAP
08c0
0580
0700
0000
0fc0
1880
3080
7000
e000
e000
e000
e000
6100
3e00
ENDCHAR
STARTCHAR eacute
ENCODING 233
SWIDTH 548 0
DWIDTH 10 0
BBX 10 14 1 0
BITMAP
01c0
0300
0600
0000
0f00
1380
3180
6380
e700
fc00
e000
e000
f180
3f00
ENDCHAR
STARTCHAR eogonek
ENCODING 234
SWIDTH 548 0
DWIDTH 10 0
BBX 9 13 1 -3
BITMAP
0f00
1380
3180
6380
e700
fc00
e000
e000
f180
3f00
0800
1000
1c00
ENDCHAR
STARTCHAR ediaeresis
ENCODING 235
SWIDTH 548 0
DWIDTH 10 0
BBX 10 12 1 0
BITMAP
0cc0
0000
0f00
1380
3180
6380
e700
fc00
e000
e000
f180
3f00
ENDCHAR
STARTCHAR ecaron
ENCODING 236
SWIDTH 548 0
DWIDTH 10 0
BBX 10 14 1 0
BITMAP
08c0
0580
0700
0000
0f00
1380
3180
6380
e700
fc00
e000
e000
f180
3f00
ENDCHAR
STARTCHAR iacute
ENCODING 237
SWIDTH 319 0
DWIDTH 6 0
BBX 8 14 2 0
BITMAP
07
0c
18
00
f8
38
30
70
70
70
70
60
e0
f8
ENDCHAR
STARTCHAR icircumflex
ENCODING 238
SWIDTH 319 0
DWIDTH 6 0
BBX 7 14 2 0
BITMAP
1c
3c
66
00
f8
38
30
70
70
70
70
60
e0
f8
ENDCHAR
STARTCHAR dcaron
ENCODING 239
SWIDTH 894 0
DWIDTH 17 0
BBX 17 16 1 0
BITMAP
000380
000380
00f380
007100
006300
00e600
07e000
18e000
30e000
70c000
61c000
e3c000
e3c000
e5c000
f98000
73e000
ENDCHAR
STARTCHAR dstroke
ENCODING 240
SWIDTH 842 0
DWIDTH 16 0
BBX 16 14 1 0
BITMAP
00f0
0070
0fff
00e0
07e0
18e0
30e0
70c0
61c0
e3c0
e3c0
e5c0
f980
73e0
ENDCHAR
STARTCHAR nacute
ENCODING 241
SWIDTH 656 0
DWIDTH 12 0
BBX 11 14 2 0
BITMAP
01c0
0300
0600
0000
f9c0
3be0
36e0
7ce0
78c0
71c0
71c0
61c0
e1c0
e1e0
ENDCHAR
STARTCHAR ncaron
ENCODING 242
SWIDTH 656 0
DWIDTH 12 0
BBX 11 14 2 0
BITMAP
1180
0b00
0e00
0000
f9c0
3be0
36e0
7ce0
78c0
71c0
71c0
61c0
e1c0
e1e0
ENDCHAR
STARTCHAR oacute
ENCODING 243
SWIDTH 599 0
DWIDTH 11 0
BBX 11 14 1 0
BITMAP
01c0
0300
0600
0000
0f80
19c0
30c0
70e0
e0c0
e1c0
e1c0
e180
f300
3c00
ENDCHAR
STARTCHAR ocircumflex
ENCODING 244
SWIDTH 599 0
DWIDTH 11 0
BBX 11 14 1 0
BITMAP
0380
0780
0cc0
0000
0f80
19c0
30c0
70e0
e0c0
e1c0
e1c0
e180
f300
3c00
ENDCHAR
STARTCHAR odoubleacute
ENCODING 245
SWIDTH 599 0
DWIDTH 11 0
BBX 12 14 1 0
BITMAP
01b0
0340
0480
0000
0f80
19c0
30c0
70e0
e0c0
e1c0
e1c0
e180
f300
3c00
ENDCHAR
STARTCHAR odiaeresis
ENCODING 246
SWIDTH 599 0
DWIDTH 11 0
BBX 11 12 1 0
BITMAP
0cc0
0000
0f80
19c0
30c0
70e0
e0c0
e1c0
e1c0
e180
f300
3c00
ENDCHAR
STARTCHAR division
ENCODING 247
SWIDTH 636 0
DWIDTH 12 0
BBX 11 10 2 0
BITMAP
0600
0600
0000
0000
0000
ffe0
0000
0000
0c00
0c00
ENDCHAR
STARTCHAR rcaron
ENCODING 248
SWIDTH 496 0
DWIDTH 9 0
BBX 10 14 2 0
BITMAP
1180
0b00
0e00
0000
f9c0
3b80
3680
7c00
7800
7000
7000
6000
e000
e000
ENDCHAR
STARTCHAR uring
ENCODING 249
SWIDTH 655 0
DWIDTH 12 0
BBX 11 14 2 0
BITMAP
0e00
0a00
0e00
0000
f1e0
70e0
70c0
70c0
71c0
63c0
e7c0
ed80
fb80
73e0
ENDCHAR
STARTCHAR uacute
ENCODING 250
SWIDTH 655 0
DWIDTH 12 0
BBX 11 14 2 0
BITMAP
00e0
0180
0300
0000
f1e0
70e0
70c0
70c0
71c0
63c0
e7c0
ed80
fb80
73e0
ENDCHAR
STARTCHAR udoubleacute
ENCODING 251
SWIDTH 655 0
DWIDTH 12 0
BBX 11 14 2 0
BITMAP
0360
0680
0900
0000
f1e0
70e0
70c0
70c0
71c0
63c0
e7c0
ed80
fb80
73e0
ENDCHAR
STARTCHAR udiaeresis
ENCODING 252
SWIDTH 655 0
DWIDTH 12 0
BBX 11 12 2 0
BITMAP
0cc0
0000
f1e0
70e0
70c0
70c0
71c0
63c0
e7c0
ed80
fb80
73e0
ENDCHAR
STARTCHAR yacute
ENCODING 253
SWIDTH 586 0
DWIDTH 11 0
BBX 13 18 0 -4
BITMAP
0070
00c0
0180
0000
3c38
1c18
0c18
0e30
0e60
0e40
0680
0700
0700
0600
0400
0800
3000
f000
ENDCHAR
STARTCHAR tcedilla
ENCODING 254
SWIDTH 375 0
DWIDTH 7 0
BBX 7 17 2 -4
BITMAP
18
38
38
fe
70
70
70
70
60
e0
e0
e0
78
18
18
18
38
ENDCHAR
STARTCHAR abovedot
ENCODING 255
SWIDTH 599 0
DWIDTH 11 0
BBX 3 2 7 12
BITMAP
e0
e0
ENDCHAR
ENDFONT
